<?xml version="1.0" encoding="UTF-8"?>
<svg id="Layer_1" data-name="Layer 1" xmlns="http://www.w3.org/2000/svg" viewBox="0 0 573 572">
  <path d="M560.78,484.89c-1.19-.17-1.88,1.44-2.62,1.58-.69.13-1.72-.58-2.73-.45-2.92.38-1.45.65-5.24.2-1.63-.19-2.75,1.19-4.45-1.18l-1.14.84-2.16-1.47-2.14,2.15c-3.38-1.84-1.89-.08-3.35.86-.32.21-2.4-.18-3.15.73-.6-.04-1.18-1.77-2.83-1.6-1.14.12-4.22,5.3-4.26-.51l-2.83,1.7-.58-3.97-1.71,1.7h-1.12c.25-2.53-1.45-1.97-3.14-2.83l-.28,1.69c-1.72-2.5-2.12-1.62-4.23-2.01-.61-.12-1.11-.72-1.75-.84-.58-.11-1.73,2.18-3.63,1.12l-.53-3.05c-3.43-.28-1.58-.92-3.19-3.15-.99.27-3.18,3.81-4.26,2.82-.92-.84,2.55-3.01,2.26-3.68-.82-1.09-1.84-.19-3.03-.9-1.31-.78-2.41-4.37-4.04-2.19-.29.39-.21,2.69-1.42,1.66-.69-.58-1.04-3.76-3.98-2.83l.28,3.41c-2.18-.07-1.21-4.54-1.99-5.11-1.24.04-1.54,2.69-1.73,2.83-.28.2-5.85-1.08-6.78-.56.06-3.35,2.22-4.6,2.83-7.37-2.46-.41-3.07.37-4.26,2.26l-.9-1.65-1.65.52c1.1-2.4-.3-3.28-2.51-4.01l-2.09,3.36c-2.1.5-4.17-.27-3.92-2.75,2.51,1.27,4.19.36,2.74-2.19l-2.75-.09,1.13-2.83-3.68,2.13-2.01-1.33.65-2.43,4.48-.07-.55-2.6-2.88.1c-1.21-1.69-.36-3.86-2.81-4.31l-.08,6.16c-4.3,1.4-2.64-.58-3.07-1.63-.29-.71-1.41-.85-1.41-1.97,0-.52,1.3-.25,1.64-1.22.65-1.89-1.09-6.85-3.04-6.88-.29,0-2.82,1.85-4.27.99l1.13-3.97c-1.4-.49-3.68.75-4.72.48-.78-.2-1.34-1.49-1.81-1.5s-.97,1.39-1.99,1.01c.41-1.38.42-3.35-.14-4.69-.74-1.77-3.22-1.49-2.7-3.82,3.25,1.02,5.63-.34,5.1-3.97-1.05.39-2.7.31-3.59.68-.99.41-.77,2.26-2.36,1.58-1.4-.6-.48-3.06-1.11-4-3.33-1.78-2.18.31-2.7,1.03-.4.55-3.26.62-2.73,2.98l4.53-.57c-.28,1.02.63,2.36.59,3.09,0,.16-2.01.71-1.15,2.59-1.18-.03-.08-1.66-1.12-2.56-.67-.58-5.14-1.45-5.11-2.26,2.21-1.3.95-2.1,1.11-3.31.04-.26,1.93-3.13,2.56-3.77.43-.44.9-.73.89-1.45.16-1.14-1.91-1.26-2.57-2.58-.29-.58.23-1.47-.23-1.99-.15-.17-3.51-2.55-3.73-2.64-2.73-1.04-7.81,2.48-7.14-3.86h2.28c.02-2.42-1.82-3-3.98-2.84l-.28,2.26c-1.77-2.68-3.94.35-4.85-3.68l1.17-.57v-1.12s-2-1.99-2-1.99l-1.98,1.69c.74-2.22.05-3.08-.57-5.11,2.91,2.12,2.73.66,4.56-.27.66-.34,3.36-.04,1.97-1.44-1.06-1.08-2.67-.17-3.58-.68-.17-.09-1.08-2.01-2.1-2.72-4.03-2.81-4.29.56-3.13,3.97-.69-.44-1.73.01-2.25-.28-.19-.11-3.06-2.94-3.18-3.13-.41-.66,1.3-4.06-1.55-3.3-.2.05-3.51,1.6-3.66,1.74-.49.43-.99,2.76-.66,3.22.84,1.19,4.16-.04,5.32-.51,1.57.85.32,1.99.48,3.02.24,1.49,2.23,2.01-.72,4.06l2.83.85c-.6,2.9-.61,3.49,1.67,5.46-1.65,1.48-.24,3.2,1.54,3.46.75.11,1.63-.55,2.46-.41.22,1.15-1.06,1.52-1.16,2.58-.28,2.94,4.36,4.94,6.81,4.82l-.86,5.1,4.3,1.13c-.67,1.19-1.94,1.62-.28,2.83,1.85.71,1.66-2,2.9-2.23.83-.15,2.24,2.37,4.19-.03-1.05,1.95.92,3.28.31,5.14-.46,1.41-2.01.97-1.26,4.05s2.73,5.54,6.06,4.44c-.65,1.67.07,5.63,1.44,6.81,1.09.94,3.81-.44,3.66.85-.04.37-2.93.95-.95,2.43.63.47,2.16-.52,1.45,1.46-.27.75-1.48,1.3-1.59,1.86-.24,1.33,3.45,2.99,4.22,4.16l1.42-1.4,1.11.61c-1.05,3.49.57,2.88,1.14,4.1.73,1.55.06,3.62.02,5.23l4.77-.06c-.17,3.12,2.14,2.37,2.54,2.98.31.48-.12,1.74.1,2.44.3.97,1.27,1.96,1.16,2.84-.08.61-2.07.54-1.75,1.74.95,2.11,3.12.69,4.19,1.45s1.17,2.91,2.62,3.68c-2.61.85-1.14,3.19-1.7,5.39,2.29.55,4.97-1.67,6.81.29l-2.26-.28,2.83,3.68c-.82,1.24-1.95,1.58-3.41,1.43v4.54s5.11-1.13,5.11-1.13c.15,2.1-2.32,1.02-2.55,2.83-.34,2.62,4.71-.84,5.96,0,.03.88-1.08.67-1.67,1.48-.82,1.13.16,2.76.39,4.07.1.59-.38,1.6-.18,1.86.57.74,2.14.03,2.03,1.09l-2.82,1.43c1.71.77,2.61,2.46,4.53,1.99l-2.2,3.12c1.08,1.89,2.14,1.07,3.9.85-1.13,2.26,1.43,2.76,2.27,4.53h-3.97s.33,2.31.33,2.31l-2.04.55,1.14,2.83c-2.8-.45-2.95.15-4.78,1.71-3,.13-2.68-3.7-6.96.75-.88.92-.06,2.85-3.59,2.09-.47,1.86,1.24.66,1.76,1.47.13.2,1.81,4.05,1.65,4.2l-3.13-.99-2.26,2.13-.59-1.17-1.96.6c-.35-2.6,4.37-1.42,3.4-3.68-.49-1.15-4.27-1.08-5.4-.86-1.56.3-2.24,3.44-4.82,2.85-.74.76,1.5,1.96,2.08,2.18.99.39,1.66-2.97,2.45-.76.37,1.01-2.73,1.83-3.27,1.88-2.16.23-4.43-.66-6.95.66.56-2.81,4.79-.5,4.54-2.83l-7.38-1.14.56,2.26c-5.49-1.93-7.83.75-11.88,3.75l2.8,4.2c-3.78-.41-5.24-4.88-9.08-3.97,1.28,5.5-3.65-2.56-3.41,2.27-1.13.14-1.47-.91-2.57-1.13-3.51-.7-4.23,2.01-6.28,2.28-1.69.22-2.61-1.2-4.21-1.16,4.53-3.69-1.03-3.28-2.16-4.08-2.65-1.89.71-7.65,2.17-9.54l2.25,1.7c-.67-2.48,1.99-4.08,2.55-5.71.26-.74-.27-1.46.02-2.2,1.02-2.59,3.93-5.14,6.51-6.01.54-1.19-8.62-7.26-3.41-8.22.1,1.66,1.29,2.03,2.78,1.62l1.2-3.33c-3.15.92-1.87-1.82-3.42-2.6-.77-.39-1.62.22-2.27-.01s-1.47-1.77-2.83-1.37c-.37-1.67,1.53-1.31,2.1-1.86s1.46-3.12.59-3.71l-1.56-.1.57-1.69h-6.81c-.34-2.03.96-.52,2.28-.83.65-.15,1.44-.79,2.19-.95.22-3.07-2.48-4.08.64-6.73l-2.2-.66-.08-2.18-4.26-1.13-.91,1.64c-2.27-.27-2.53-1.42-3.33-3.33,4.38-1.61-.17-4.55-2.84-5.14,1.46-2.58.99-3.05,0-5.66l2.27-.58c.16-1.77-1.51-1.77-2.83-1.7l1.69-1.97c-1.14-2.5-2.98-1.15-3.84-1.54-.25-.11-3.55-3.59-3.55-4.15l.87-1.41c1.49,1.47,3.6.56,5.43.3l.53-2.58-3.09,1.13c-1.39-.29-2.31-7.16-5.42-5.67l1.7,4.54c-1.85.33-2.31-.66-2.27-2.27-1.36.29-2.79,1.22-3.4-.56,4.49.25,1.55-1.54.36-2.92-.33-.38-.26-1.16-.51-1.47-.71-.85-2.55-.06-2.11-1.86,1.96-.98,5.43,4.26,5.07.04-2.14.07-2.51-1.51-3.66-2.88l-1.99.84c.15-2.12,3.02-.95,3.73-1.94,1.27-1.77-.67-4.41-1.81-5.75l-1.92.61,1.65,1.21-.56,2.17-3.93.02c3.38-2.48.26-7.42-3.4-5.67-1.77-1.83,9-4.66,6.56-8.55l-2.59-.53v2.84c-1.96.59-1.6-1.01-2.29-1.4-.97-.55-2.49.17-2.28-1.42l-1.11-.02c.5,1.46-1.44,3.09-1.71,1.41-.12-.74,1.33-1.49,1.16-2.78-.09-.72-.95-1.34-.95-1.75,0-.36.82-.87.81-1.59-.08-4.73-4.8-6.33-6.5-10.11l-5.87.06c.03-1.43,2.48-.44,2.22-1.93-.36-2.02-1.64-1.51-3.35-1.48-.57-2.59,5.74-1.02,5.66-2.55l-1.42-1.41-1.41,1.13c.98-3.26-1.7-3.33-1.72-5.65l-1.69-.02-.28,1.7-4.26-3.69,3.93-.32c-.36-5.7-2.3-2.23-3.06-2.17-.99.08-1.96-.02-2.58-.92l3.39-2.26c-.22-1.17-1.56-1.47-1.93-2.01-.45-.67-.24-1.75-.61-2.27-.48-.68-1.77-.41-1.95-.59-.79-.83,1.94-4.27-.61-4.83,1.51-2.83-3.23-4.82-5.11-2.5.27-5.89-2.26-2.25-3.6-2.37-.75-.07-1.69-1.14-2.65-1.05.16-1.99,2.29-1.95,2.88-2.65.54-.64.78-2.56,1.66-3.32l-3.97-.57c3.92-5.77-.71-3.68-2.28-7.95l3.42-3.1-3.12,1.12c-2.14-1.71,2.03-3.06.25-5.63-.79-.55-6.93,1.83-6.2-1.44l2.83-.28.28-1.71c1.2,3.01,1.93.72,3.85,1.21,1,.25,1.35,1.92,2.68,1.63.41-2.87-2.09-3.38-3.42-4.81-.73-.78-1.05-2.76-2.04-3l-6.7-.7c-.37,0-2.21,3.77-3.74,2.83l1.7-1.7c-.07-1.6-1.84-2.19-2.02-3.91-.11-1.03.94-1.75.8-2.53-.16-.93-2.76-3.33-3.89-2.06.27-2.63-1.54-4.02-3.38-5.45-.29-1.15,4.02-4.31-.86-5.38-.94,3.16-2.77-1.28-4.28.05-.55.49,1.49,2.61-.28,2.26-4.62-3.6.55-3.05.84-4.26l-3.4-3.96,1.69-3.12-3.71.09-.6,1.08c-3.4-1.31-2.36-.22-3.7.75-3.18,2.32-1.63,2.67-3.08,4.31-.64.73-2.13.51-2.48,1.5-.47,1.35.65,2.86,0,3.92-.13.21-3.24,3.15-3.51,3.32-.79.53-3.74,1.33-3.9,1.57-.17.25.52,1.09.23,1.64-.46.87-2.91,1.79-3.36,2.27-.92.98-1.37,2.92-2.09,4.05-1.67,2.63-2.73,3.67-5.11,5.83-.37.33-1.35.19-1.55.41-.61.68,1.03,3.07-1.94,2.05-.58-.2-1.19-.99-1.27-.99-.35.01-.6,1.19-1.04,1.5-.46.33-1.18.29-1.76.78-1.33,1.11-.67,2.79-3.73,1.69.23,6.64-3.2,1.57-4.18,1.74-.61.11-4.61,3.83-3.19,5.07l-3.98.57c.72-2.97-2.92-1.78-2,0,.35.68,1.76,1.03,1.43,2.26-2.4.47-2.17-2.07-2.31-2.2-1.46-1.35-7.27,3.01-9.04,3.33.38-1.59,3.34-3.23,4.73-3.39l.38-1.71c-2,1.08-4.51.7-5.48,2.88l-4.44-1.75-.87,2.84-5.68-.58v2.28c-2.48.44-2.71-2.61-4.26-3.97l-.28,1.69c-1.72.35-1.84-.55-2.56-1.71l-1.42.02.57,1.69h-4.54c1.26-3.67-2.47-4.64-2.56-.57l-2.85-3.97-1.97,1.13-.65-2.77c-2.73.3-1.76-.54-3.02-2.22l-2.01.45,1.13-1.69-1.68-1.43,1.11-.84,1.93,1.06.93-1.33-3.14-6.54-1.94.34-.05,3.62c-3.35-.67-1.9-5.29-5.1-5.69l.08-1.06c2.97-.79-.04-1.84-.38-2.34-.36-.53.18-1.45.03-1.71-1.13-1.89-1.96,2.36-3.7-.27l.89-1.42-1.99-2.06,1.1-2.18c-.13-.81-2.73.16-2.86-3.41-.07-1.92,3.63.08,2.85-1.7-.53-1.21-2.83-3.75-3.95-4.62l.99-2.22c-3.36-2.96-.06-2.55.16-3.51.31-1.32-1.01-3.12-.35-4.15l4.29-2.56-1.75-2.84,2.31-2.31-1.12-2.5h2.27s-1.07-3.91-1.07-3.91c1.92-.81,3.3-1.04,2.78-3.48,2.27,1.17,4.74-.32,3.97-3.02-.13-.44-1.1-.33-1.11-.73-.05-1.04,1.01-1.63-.58-3.06,2.86-.9,5.2-.25,7.83-.14,3.82.15.18-2.83-1.58-3.55,1.18-1.97,2.63-.68,4.53-.85.35-1-.75-2.59-.44-3.27.09-.19,2.36-2.73,2.73-3.26s.11-1.34.53-1.69c1.28-1.07,3.75-.9,4.51-3.49l-.82-1.33-1.96.55c.54-4.91,7.13-2.59,9.38-5.67l2.27,1.6c1.98-2.84,2.97-3.12,6.52-2.74l-.55-3.38c.68-.49,2.5-.09,2.85-.34.66-.48.59-2.85,2.8-.53l-1.69,2.55,3.71-.54c-.83-1.85,2.33-4.79,3.68-5.47.45-.23,3.55,1.25,5.7.06l-.03-2.57c1.81-.62,1.24,2.51,1.71,2.83,1.85.17,3.67-1.22,1.71-2.55,1.76-.7,3.09-1.75,3.71-3.69-2.16-3.26-3.31-1.14-4.48-1.23-1.09-.08-2.27-2.1-3.78-1.61.75,3.54-3.9,1-2.84,0l2.26.57v-2.28c.44-.47,6.81,2.88,6.57-1.14-.73-1.49-3.26-.36-2.52-2.46.7-1.97,2.35-.91,3.9-.93.15-.89.09-3.01-1.32-2.76-2.34,2.22-7.81-.54-6.05,4.46l-2.53.54c-1.52-1.18.19-2.24-1.19-3.91-1.87-2.27-7.6-3.18-9.34-6.57,1.18-.98,3.19.3,4.29.23s2.05-1.86,3.66-.81c.41.26,1.61,3.17,2.83,2s-2.64-5.12-3.88-5.44l.48-2.5c-3,.87-5.48-4.67-6.63-5.05-1.23-.4-2.41.53-3.24.37-.32-.06-4.77-3.09-5.31-3.24-1.94-.56-4.92.24-6.38-2.02,0-.56,7.19-2.02,6.78-3.94-.19-.88-2.21-1.71-2.78-2.34s-.64-1.55-1.21-2.2c-1.33-1.55-3.56-2.47-4.01-5.38l-2.77.51.87-2.28c-1.18-1.03-3.32-1.99-4.3-3.1-.55-.62-.58-1.96-1.11-2.35s-1.43.36-1.64.25c-.67-.38-6.04-5.86-6.89-7-.93-1.24-1.72-3.43-2.62-4.76-.63-.94-3.11-1.43-1.6-3.52.57-.39,3.14-.16,2.51-1.36-.93-.26-1.86-1.99-2.42-2.19-1.17-.41-2.04.29-2.85.09-1.78-.44-2.95-3.7-4.92-3.32l-.03-4.52,1.7.57.65-3.33,2.76-.08c.35-2.47-3.57-3.76-4.39-4.7-.56-.63-.33-2.71-2.15-2.71-1.3-.19-2.02,3.32-2.93,4.04-1.44,1-2.21-.29-3.58-.62l2.21-1.18c.57-4.38-2.63-2.13-4.85-4.13-2.03-1.83-.97-2.98-2.2-4.9-1.9-.21-.19,2.29-.37,3.06-.14.62-1.17,1.22-1.61.9-.74-.54.93-4.99-1.7-5.39,2.27-1.32,1.61-3.72,2.03-4.85.3-.81,2.06-1.58,1.37-3.38-6.31-.31-.96-3.65-.65-4.94.23-.98-.9-3.24-.21-4.75l-3.11-1.11c.5,1.49-.34,3.81-1.99,3.78-.42,0-1.39-1.31-1.96-.92-.13.09-.55,2.23-2.03,2.11-.73-.06-3.43-3.75-5.38-2.13l1.13-3.97-4.55-1.14.85-1.69,1.98,1.12c.48-2.25.59-4.1-2.22-3.33l-.05,1.63c-.86.88-4.55-2.84-5.13-3.67-1.49-2.14-2.85-4.96-4.78-7.15-.71-.82-1.85-1.16-2.58-1.96,3.82-1.56-1.61-2.06.84-4.23,1.43.67,2.38.28,2,2.24l4.54-1.71c1.57-1.6-8.31-2.32-1.73-4.01l.02-1.64c-2.7-1.33-3.7.91-5.66,2.25.26-1.48-3.19-6.15-4.27-6.29l-1.47.41-.84,3.08,2.59,1.39-1.41,1.4c-1.17-1.66-3.41-1.87-4.8-3.12-.64-.57-.79-.48-.03-1.12l2.28-.56.5-1.04c-.55-.59-1.47-3.54-1.73-3.69-.57-.35-3.7.32-3.31-1.51.56-2.62,3.88,1.18,4.82,1.42,1.87.31.62-2.73-.53-3.45-.85-.54-1.82-.34-2.42-.7-.47-.28-.56-1.5-1.84-1.87-3.06-.87-3.69,2.7-6.28,2.04l1.07,5.27c-2.27,1.84-2.14,3.98-3.33,6.38-.56.43-2.22-2.11-3.4,0l2.25.87v1.68s-1.69,0-1.69,0l1.13,1.99c-3.41,1.46-1.08,2.9-2.32,5.04-1.18,2.02-3.69,1.22-2.21,4.9h-2.28c-.28,1.16.8,1.84.85,2.88.02.45-.85,5.84-1.02,6.09s-1.1.42-1.48,1.02c-1.15,1.84.19,3.33-.05,5.34h-2.28s-.02,4.52-.02,4.52c-1.57-.04-3.1.24-3.42,2.02l2.16,2.84-4.88,5.75.81,1.33,1.95-.56c.92,2.76-3.05,1.92-3.4,3.13-.45,1.42,1.48,2.13,1.62,2.91.12.62-1.69,6.46-2.38,7.4-.38.52-1.47.51-1.51,1.31l2.27,1.13c-3.18.1-4.76,5.36-1.7,6.81-1.01-.03-2.74-1.24-3.4.3-.44,1.03,1.61.97,2.03,2.52.9,3.36-2.66,2.86-3.17,4.29,4.01,2.2-3.03,3.79-3.4,4.55-.75,1.52,3.96,1.3,3.4,3.11-1.93.47-3.02,1.15-5.11.58l.04,2.22,3.37.31c.79.51-.14,1.36.13,1.86.11.2.95.23,1.02.43.79,2.23-2.12.77-2.31,2.84-.14,1.57,1.07,3.58,2.29,4.55-1.06,1.72-1.6-.3-1.98-.27-1.57.12-.16,3.21-.28,3.39l-2.27.59c3.24,2.79,1.14,2.77,1.21,4.16.03.6.72,1.27,1.05,1.8l-1.1.56-1.96-.89c-1.75,1.27-.98,3.98.19,5.37.69.83,1.99-.29,1.75,1.2s-1.67,1.16-1.75,1.75c-.2,1.5,3.55,4.59-1.09,4.78,1.39,2.2.57,4.9-2.27,5.11-.37,1.76,2.51,1.54,2.27,3.4-6.25.07.4,3.67-2.26,5.97l.85.85,1.97-.57-.85,1.48-1.41-.35v1.7s1.63.05,1.63.05l.07,2.22c-.76-.48-2.62-.89-2.83.29-.25,1.39,2.66,1.43,2.26,3.11-.26.25-3.7-1.63-4.53.29-.66,1.51.19,1.13.81,1.47,1.86,1.01,3.64,1.16,3.16,3.92h-2.28c1.81,1.93.75,3.86,2.27,5.67l-2.31.92,1.74,4.76-2.83-.56c-.35,1.32,1.01,2.78,1.03,3.79s-1.29,1.32-1.03,2.44c5.22-.21.52,2.31-.27,3.41-1.4,1.95-1.3,3.27,1.32,3.48l.08,3.33c-2.72-.83-3.22,2.34-3.4,4.54l2.57-.02.3,3.09c-4.6,1.13-1.03,3.46-1.22,4.53-.12.69-1.66,1.14-1.57,2.24.12,1.29,1.97,3.12,1.65,5.22-.22,1.41-1.63,1.19-1.78,1.81-.27,1.12.79,3.18.55,3.5-.26.35-3,1.21-2.66,3.23.14.86,5.67,2.71-1.25,5.08,3.77,3.1-.23,1.86-.01,4.82h1.7s0,1.7,0,1.7c-1.72,1.07-2.68-1.54-3.97.3-.19.96,2.53,1.96,2.74,3.5.1.79-1.22,1.53-1.08,2.69.07.58,2.02.55,1.76,1.74l-1.71.29c-.41,1.18.9,1.97,1.02,2.67.37,2.18-4.65,7.38-4.42,8.36.18.78,2.38.92,2.82,2.89.86,3.89-1.88,3.09-2.1,5.17l.41,6.46,1.69-1.13c.51,1.71-1.65,3.06-1.68,4.25-.03,1.07,1.44,2.31,1.16,3.95l-2.3,1.16,2.26,3.69-2.59,1.14.84,3.36-2.26.98c.78,1.47-.07,2.98.13,4.31.24,1.62,1.94,2.98,1.61,4.69-.12.61-1.31-.12-1.74.65-1.35,2.4-.05,4.56,1.18,6.6,1.41,2.35.34,1.08.84,3.24.26,1.1,1.71,1.94,2.54,2.58l-2.27.85.51,1.95-1.7,1.21,2.32,5.34c-2.34-.61-2.48,2.49-2.12,4.12.4,1.82,2.72,2.47,2.72,3.55-.04,1.52-2.3,1.32-2.32,2.83-.02,1.68,2.12,1.07,2.32,1.77.81,2.83-1.61,2.81-1.74,3.36-.12.5,1.07,1.79,1.32,2.64.72,2.45,2.06,13.91,1.52,15.99-.12.47-1.17.31-1.16.66.05.88,1.06,1.28,1.05,2.16,0,.7-1.41,5.25-1.94,5.44l-1.92.06.56-2.26-5.39-.02-.85,1.72c.92-3.37-2.01-2.02-2.89-3.21-.49-.66-.84-2.91-1.49-4.02-.82-1.4-2.97-2.86-3.01-4.69l-1.14.29c.07,1.01,1.73,3.49-.56,3.12l-.27-5.12h-3.14s.56-9.07.56-9.07l-2.26,1.13c-.12-1.86-1.36-3.36-2.12-5.01-1.16-2.54-.8-1.51-1.88-3.18-.42-.64-3.2-5.45-1.41-4.87.58.19.06.85.53,1.09l2.6-.52c.69-2.69-2.13-3.41-3.08-5.15-.45-.82-.52-2.04-.95-3.02-.35-.81-1.5-1.96-1.58-2.43-.15-.92,1.38-1.35,1.06-2.45l-3.4.32c-2.42-2.88.28-1.32.57-3.73l-2.3.27c-.68-.28-1.8-2.12-.73-2.53l2.44-.86c-1.46-2.5-3.86-2.53-3.64-6l-2.59-.54,3.4-3.68-4.53-2.28c1.2-2.86,2.82-3.28,0-5.94l3.97,1.69c-1.02-1.47.43-6.76-.29-7.97-.55-.93-2.46-.57-2.55-1.66,1.12-.02,1.71-1.21,2.65-1.52,1.16-.38,4.31.68,2.77-1.92-.46-.77-1.77-.97-1.91-1.19-.1-.16.9-1.59-.4-2.18l-2.54,2.26c-.36-1.42.64-2.98.55-4.23-.08-1.14-1.43-2.31-1.09-3.37.23-.73,1.6-.68,1.72-1.3s-.23-5.1-.04-5.28h1.71s-.65-1.68-.65-1.68l-2.18-.31c3.98-1.54,4.03-4.58,2.52-8.24.85-1.95,4.56-1.93,5.16-2.8.91-1.33-.52-3.07-.23-4.17s2.77-2.04,1.35-4.41c-.4-.67-2.01.47-2.56-.8l1.13-2.55-1.74-.33c.33-1.3-.44-2.68-.36-3.84.03-.4.8-.96.86-1.78.19-2.96-2.8-7.45.37-9.43.81-.51,1.91.34,2.57-.81.37-1.66-3.31-1.28-3.39-2.26-.12-1.39,2.74-.17,2.82-.29.03-.97.28-3.05-.91-3.38l-1.92.54v-1.7s1.69.57,1.69.57c-.21-4.68,2.65-1.21,3.3-3.26.18-.56.04-1.25.15-1.83,3.05.5,1.29-1.25.1-2.27-1.02-.87-2.93-.54-2.4-2.86l2.27-.3c-1.29-1.85-.21-2.84-.23-3.38-.03-.92-1.81-2.2.19-4.48.49-.55,1.27-.25,1.58-.49.79-.62.07-2.76,2.43-2.15-.32-3.37-4.05-1.3-5.68-3.68l3.96-.29c-.85-1.98,1.64-3.55,1.7-3.81.17-.71-.22-1.67.13-2.31.12-.22,1.14-.45,1.59-.93,2.42-2.63-1.2-4-2.86-2.89-1.86,1.25,2.77,4.38-.95,4.78-2.18.23-2.13-5-1.18-6.06.3-.33,1.92-.18,2.15-.99.28-.99-.85-1.69-.91-2.26-.09-.87,1.12-2.29.95-3.32-.09-.55-3.77-1.31.24-4.91,2.11.48,1.44,3.1,4.25,2.27l-1.71-4.54c-.74-.66-4.01,2.66-5.1.27-.4-.86,4.09-2.42,3.98-3.96.04-1.99-5.3-1.17-3.7-4.27h3.68s0-1.69,0-1.69l-3.41-.58,1.71-1.42-1.71-4.24h2.27s-.54-1.93-.54-1.93c2.06-.84,1.33-2.08,1.98-3.15.43-.7,2.27-1.26,2.53-2.6.52-1.94-2.89.2-3.4-.28,1.29-3.26-.05-5.8-3.4-3.4.28-3.95,4.84.22,5.69-3.69-.17-2.6-3.55.09-3.99-.29-.02-1.65,2.04-2.65,3.41-2.27.31-1.91-.9-2.32-2.27-3.12l3.42-1.71c-.08-2.52-5.74-1.67-3.6-4.29,1.6-1.95.82-1.31,1.58-3.39.36-.99,1.43-2.13,1.4-3.11-.03-1.05-2.73-4.37-2.24-4.82,2.1-.55,2.06,1.38,2.78,2.59.31.52-.29,1.12,1.19.82,1.23-2.63.03-3.89.58-6.24l3.39.56c.45-.42-2.95-3.84-3.2-3.91-1.7-.55-2.13,1.08-3.61,1.07l4.55-6.8c1.61-.13.92,1.83,3.39,1.13-.16-1.28.29-2.99,0-4.16-.22-.91-.42.1-.71-2.87-.1-1.08-1.98-2.72-1.97-4.72,0-1.23,1.29-2.2.98-3.57l-1.64-.03-.06-3.37c.37-.41,3.23,2.59,3.88-.4.44-2.03-1.81-3.59,2.24-4.97l-.45-2.01h2.83s-1.48-2.13-1.48-2.13l-4.76.71c2.69-.92,5.12-3.78,7.94-2.56-.28-2.65-2.55-4.35-5.12-4.29l-.56,2.59c-3.04.22-.97-3.69.16-4.39,1.02-.63,3.6-.2,4.33-2.22-.17-2.85-2.76-2.18-3.25-2.58-.14-.11-1.08-2.75-1.24-3.31,2.55-.08,3.21,1.54,4.29,3.34l4.56-1.04c1.32-4.28-2.74-3.47-2.96-6.85-.06-1.03.11-1.33.9-1.99l-2.24-1.7c.72-1.17,1.62-.26,2.64-.69,3.28-1.36.92-4.3,1.89-6.98l3.33-.08c-.27-4.07.03-3.28,2.91-5.32-.24-2.41-3.33.76-4.53.29-.48-1.78,2.68-1.69,2.87-2.65.31-1.51-1.17-2.43-1.17-3.31,0-.73,1.87-3.66,1.72-5.08-.02-.16-2.86-1.22.56-1.19l1.11,1.17c.46,1.08-1.44.6-1.47,2.26-.02.97.88,1.91,1.85,1.88,1.05-.03,7.76-5.04,4.43-6.71l-3.11,1.14,2.31-4.83c-.01-1.5-2.48-.8-1.7-3.36.41-1.36,1.83-.28,2.79-.33l-.56-3.4,3.67,1.14.87-2.85,3.4.57c.37-4.54-3.31-2.02-5.82-3.4-2.97-1.64,1.98-6.57.71-1.71,2.45.87,5.41-3.1,2.84-4.25-1.31-.59-3.05.23-3.88-1.12.93-1.36.26-4.33,2.17-4.29v-1.11s-1.11-.26-1.11-.26c.37-2.27,2.21-2.4,3.35-4.09l-1.1-1.9h1.71c.31-1.91-.9-2.33-2.27-3.13.58-1.67,3.08,1.17,3.23-1.8.13-2.56-2.38-4.18-2.53-5.1-.24-1.39,1.36-1.28-1.26-3.04h2.28c.54-1.94-1.01-4.53-.28-6.22,1.19-2.74,3.61-2.39,5.38-4.29l-2.43-1.42c-1.64-.49,1.93-3.77,2.25-3.88,1.65-.59,4.18.11,5.87.48l.24-4.58,2.6-.54c.29-2.1-2.32-1.3-3.11-2.28-.69-.86-.16-2.65-2.56-2.27.19-3.03,3.43.18,4.83-2.82l1.76,2.77,1.6.08.62-1.17,1.41.87c-1.16.74-2.31,6.08-.83,6.52,2.34.71,1.66-2.51,2.52-3.14.98-.72,5.88-1.13,6.27.61l-1.7,2.53c2.07-.01,2.97,1.65,5.07.85.82-.32,3.82-3.28,4.58-2.54v1.71s1.73-.35,1.73-.35l.55,2.05c3.45-1.32,1.69.21,2.38.98.29.32,1.35.18,1.88.7.9.87.72,2.96,2.97,4.41.84.54,3.04,1.08,3.4,1.45s.25,1.37.7,1.83c.81.83,2.09,1.05,2.42,2.46l4.63.07.38,1.7,3.39-.55v1.71s4.52-1.09,4.52-1.09l.03,1.65,2.83-.57c-.34,2.66,2.68,1.94,3.42,4.3,3.4-.53,1.6-.15,2.58,1.32.48.71,1.47,1.28,1.69,1.78.38.87-.71,1.96.5,2.86l4.88.53-2.31,1.44,1.21,4.2,3.37-1.1c-1.38,2.88,2.4,3.59,3.11,5.12.43.93.12,2.62.83,3.16l4.57.24c.66,2.36-3.23.02-2.83,1.97s2.24,1.42,3.42,2.41,1.73,3.29,2.25,4.69h-1.71s1.13,3.41,1.13,3.41c-2.62,1.17-1.88-.76-3.01-2.1-.61-.72-2.51-1.9-3.23-3,.49,1.42,1.76,6.03,2.53,6.83,1.22,1.26,7.77-.61,9.86.08l.65,2.18c-2.28-2.22-3.6-.3-3.41,2.27h2.27s.55,4.75.55,4.75l1.72,1.5-2.83.28c1.79,2.27,3.29,6.47,4.06.96,1.2-1.38,4.81,1.41,5.64,2.44.64.79.1,2.82.54,3.11,1.86,1.22,2.12-1.78,3.11-.54-.93,2.92.33,5.73,3.1,6.84-2.29,3.22.16,6.3,3.98,5.66.31,2.31-2.77.48-2.28,3.09.38,2.01,2.57,1.99,3.17,3.16s-1.38,6.31,3.08,3.4c-.21,1.19-.43,4.75.53,5.44,1.21.87,3.73-.95,4.87.8l.27,2.84-1.69-2.27-.96,5.44c1.12,1.04,5.42,5.2,4.36,6.48-4.52-2.05-3.59,2.58-1.49,2.23.79-.13,1.34-2.03,2.63-1.66-2.24,5.8.67,2.14,2.5,2.25.93.05,5.97,2.32,6.64,3.08,1.08,1.22-.22,2.81.45,3.91.36.58,2.29,1.27,2.31,1.83.09,2.38-4.65-1.79-5.66-.85.19,3.21,2.9,3.2,5.1,4.25l-1.14,1.71c.27,2.2,1.85,1.44,2.86,1.8,1.53.54,1.51,2.01,3.4.19l-.55,2.52c1,1.29,2.3-.13,3.64,1.5,2.25,2.74-1.84,2.25-.81,5.64,1.81.39,1.66-.57,2.55-1.69,2.88,2.28-.3,3.74.86,6.23l3.39.29-2.18.36c-1.69,2.91.54,3.39,2.47,5.03l1.13-2.82,2.56,1.13c-1.79,1.99.24,2.69-.46,4.76l.76.9,1.96-.55-1.14,1.97c4.26,2.9,2.45,5.82.6,9.62l1.38.89c2.8-1.58,3.38-3.03,7.11-2.27l-1.68,2.55c1.23.76,1.37,2.07,2.03,3.06,1.25,1.89,1.41,2.68,2.24,4.03.46.75,2.26.57,1.4,3.4,2.1.34.83-3.73,3.4-3.4-.41,3.46.15,5.12,2.61,7.38l3.07-.56c-1.8,1.72-2.11,3.37-.79,5.64.09.16,2.33,2.54,2.49,2.62.72.36,1.58-.54,2.58.19,1.46,1.06,1.15,3.77,1.95,4.38l3.43.24c-1.33,3.04,3.97,6.9,2.26,1.7l2.84-.58c-1-3.26-.19-2.13.57-3.24,3.02-4.44,2.03-3.94,6.62-7.16.77-.54,2.35-4.46,2.49-.44,3.95,1.23,3.61-2.45,6.79-2.48v-3.13c3.06.75,2.48-1.77,3.74-3.35,1.68-2.09,3.85-3.24,6.47-2.33-.98-3.42,2.08-4.03,2.28-6.82l2.26.57c-.49-3.52,2.72-4.02,4.5-6.03,1.19-1.35-.11-2.52,3.45-1.91v-2.28c2.05,1.95,4.18,3.11,3.41,6.25,1.42-.5,5.76.07,6.84.82,1.3.9-.66,3.6,2.08,3.28.05,2.95,3.39,3.28,4.39,4.45.45.52.42,1.53,1.13,2.27,2.35,2.45,3.24.74,4.67.6.31-.03,3.47,2.91,3.54,3.14.23.82-.78,1.75-.24,2.48.61,1,1.66-.26,2.73-.05.84.17,2.88,4.02,3.06,4.97.14.73-.5,1.52-.43,2.08.06.47,1.22.6,1.68,1.27,1.68,2.47.36,4.21,5.17,4.79.42,1.52-.94,1.05-1.7,1.96-4.1,4.87,1.06,3.74.57,5.69-.83.93-2.73,1.15-2.24,2.79l2.81,1.48c-3.14,3.75,1.94,4.93,2.23,6.6.17.94-1.75,1.5-1.73,3.33.02,1.61,2.57,4.43,1.43,7.12,4.54.76,4.19,4.22,4.55,7.97,2.66.35,3.1,2.17,5.48,3.14.34,1.58-2.97,5.68-1.2,6.78l2.3.26v3.4s-2.27-1.13-2.27-1.13c-.23,1.29.73,4.85,2.05,5.07l3.06-1.09-.58,1.13,2.84.58c.14.18-1.99,2.41-.61,4.19.39.5,1.29.18,1.58.48.81.84,1.64,1.66,2.47,2.53,1.23,1.28,1.2,5.21,3.94,4.73-.14,2.08-2.99,1.18-1.16,4.13.82,1.32,3.69,2.61,4.26,3.26,1.24,1.43.91,5.28,4.17,4.62l4.65,8.73c-3.07,1.05,1.45,2.46,1.75,2.89,1.31,1.88-.36,5.54,5.05,5.33l-1.7,1.97,3.4,1.73-.93,2.26.67,1.39c1.01,1.13,1.77.94,3.1.59v1.71c1.02-.68,3.73-.38,4.55.27.73.57.44,1.82.88,2.53s1.32,1.1,1.66,1.76c.36.7.18,2.07.33,2.21.21.21,3.24-.4,3.94,1.46-2.71,1.12-.42,1.7-.06,2.43.21.43.09,1.19.38,1.76.64,1.25,2.28,2.08,1.96,4.04l1.4-.38.85.68-.56,3.66c1.22.1,1.69.23,1.75-1.05l1.07-.07c.77.95,2.36,3.77,3.02,4.37,1,.91,5.09,3.5,5.8,4.71.6,1.02-.03,2.39.56,3.41.39.67,5.03,4.24,5.43,4.93,1.16,1.96-.28,5.61,4.5,4.16l-.57,2.83,5.11,1.15-1.68,3.06c3.85,2.15,2.28,3.84,3.05,6.77,1.14,4.38,4.6,1.24,6.35,2.6,1.49,1.26.94,3.92,1.65,5.21.27.49,1.24.05,1.73.49,1.47,1.3,7.08,6.4,7.87,7.47.42.57.28,1.59.34,1.66.1.11,2.12-1.32,2.83.28.06.16-2.98.65.03,1.71-2.4,4.81,1.2,2.92,3.93,3.99s3.27,4.11,4.23,4.86c.72.56,1.86.38,2.57.84,1.11.71,3.8,4.79,5.74,5.67,1.41.64,3.63-1.07,5.66-.03,1.34.68.84,2.73,1.94,3.73,1.45,1.31,6.27,3.04,8.26,3.95l-2.54,1.69c-.6-.88-8.4-7.16-8.23-4.25,2.79,1.71,4.15,4.35,6.84,6.21,1.74,1.2,5.95,4.31,7.38,5.11,1,.56,4.41,1.07,4.92,1.62,2.39,2.56,1.62,1.68,4.63,3.59.57.36.75,1.36,1.2,1.64,1.86,1.18,9.73.12,12.33,1.01.15.05.17.96.52,1.01.8.11,1.84-.71,2.7-.64.39.03.31,1.02,1.05,1.34,1.56.69,5.27,1.36,6.85.85.78-.25,1.19-1.28,1.93-1.49.83-.22,2.94.58,4.14-.1v33.5ZM90.09,115.85c.37-1.61-.69-3.8-2.54-3.4s.94,4.3,2.54,3.4ZM156.3,113.82c-2.59-2.02-1.28,1.27-.58,2.56.38.71,1.33,1.12,1.64,1.77.8,1.68.31,3.9,2.94,5l3.35-1.59c1.17-2.64-1.42-1.85-2.42-2.44-.36-.21-3.66-4.31-4.92-5.29ZM205.35,114.72c-2.15,0-2.23,3.13-2.31,4.73,3.63,3.46,8.16-4.15,2.31-2.46v-2.27ZM79.31,144.24l-2.59.53-.25,3.44c2.14.51,2.93-2.2,2.83-3.97ZM184.71,146.87c-.67.56-1.54.87-2.06,1.63l1.4,1.27c1.99-.59,3.76-2.62,1.71-4.38-.34.03-.68,1.17-1.05,1.49ZM80.44,159.57c-1.06.14-5.98.23-5.67,1.98.26,1.5,4.65-.25,5.68.29v-2.27ZM222.38,180.58l-3.93.6.06,2.71,2.75.98c1.45-1.04,1.18-2.68,1.12-4.29ZM242.2,220.27l.08-1.95-3.43-.26v2.26s3.35-.05,3.35-.05ZM268.35,223.19c-.82.17-3.67-.78-3.39.83,1.14,1.25,2.7,5.21,4.16,5.27.43.02,1.86-.36,1.54-1.3-.26-1.63-2.97-2.42-2.32-4.8ZM262.7,249.28h-3.41s.27,2.29.27,2.29c.84,1.38,3.86-.61,3.14-2.29ZM68.51,258.37c-1.79.79-7.49-1.03-6.73,1.89.42,1.62,5.71,3.36,7.29,2.04l-.56-3.93ZM68.34,266.14c2.06-2.31-1.91-3.05-3.37-.26-.35.68-.51,1.37-.42,2.13.55.55,3.32-1.34,3.79-1.87ZM330.1,282.95c-.36-.33-1.08-.74-1.56-.5-1.61,4.12-6.45,2.43-7.36,6.83,4.88,3.67,4.08-3.21,7.95-3.1-.21,1.69-3.56,4.47,0,3.97-.75.9-1.94,6.59.56,4.76,1.23-.9,1.59-2.83,3.73-.8l-.87,2.01,2.24,1.69-1.11,1.72,3.12,3.68c.91.42,2.15-2.78,2.86-3.38s.97-.75,1.96-.59c-.39,2.24-.58,4.02-2.27,5.66,1.82.06,1.64,1.31,1.8,2.79l1.61,1.19-2.83-.56-1.18,5.36c1.83.91,2.83,3.1,5.14,2.58l-.56-2.26,2.53,1.68c2.5-1.31,1.2-2.43,1.47-3.63.43-1.91,1.69-2.21.49-4.99-.36-.83-1.64-.58-1.67-3-.02-1.8,1.73-.08,1.72-1.42-2.14-.25-3.18-.41-5.1.56-.23-1.1.89-1.25.87-2.31-.03-1.7-4.44-5.42-1.12-7.89l-.62-1.16c-2.02,1.62-2.1.15-4.24,0-.38,2.23.72,3.15,2.83,3.41.15.19-.85,1.31-1.11,1.41-.95.35-6.68-2.23-5.06-4.2l1.66-.38.53-6.48c-1.16-.71-3.24,1.22-3.39,1.13-.04-.02.1-.62-.21-.9-1.12-1.02-1.97-2.12-2.81-2.89ZM352.79,312.14c.37-.8.39-3.18-.07-3.86l-2.59-.53c-.31,1.31.83,3.02.61,4.15-.08.42-4.44,2.22,1.09,3.23-.85-2.2.84-2.75.95-2.99ZM314.93,316.84c-1.21,2.09,0,4.63,2.3,3.14.44-.29.47-4,.04-4.58-1.91-2.61-4.34-.57-6.35.64-.03,5.26,3.27.06,4.01.8ZM357.47,320.29l-5.63-1.18,1.7,3.11c-.17.66-4.21,1.58-3.92,3.33.11.68,3.8,3.15,4.52,3.46,1.03.46,2.1.15,2.95.46,1.26.46,2.19,1.94,3.81,1.54,2-3.63-1.73-3.5-1.67-6.79h3.04c1.31-.75-.72-3.33-2.12-2.81-4.3,5.51-2.29-.59-2.67-1.12ZM319.48,335.01c.96,1.9,3.47,1.91,5.31,1.61l.98-1.35c.1-1.32-1.32-2.94-2.61-3.14-1.15-.17-1.81,3.19-3.67,2.87ZM365.34,335.4c-2.31,1.28-4.69-3.63-7.23-2.07-.74,2.99,1.44,2.32,2.54,3.39.54.53.52,1.61.99,2.12,1.36,1.44,3.56-1.06,5.54.15.25-1.54,1.55-5.07-1.42-4.56-.24.04-.25.9-.41.98ZM58.87,333.87l-3.4,1.42c1.09,1.79,2.33,1.53,1.7,4.25,3.3.75.42-3.33,1.7-5.68ZM393.29,388.94c.27.68.19,1.54,1.11,1.96l4.57.31c.23-.23-1.04-5.76-1.7-6.24l2.84.56c.28-.27-.64-2.12.85-1.7.68.32,2.15,4.29,3.42,2.27.96-1.53-.52-2.33-.58-3.12-.21-2.62,1-8.9-3.68-5.4.59-3.23-1.63-2.68-2.82-3.72-.66-.57-.57-1.64-1.19-2.22-.72-.67-2.84-1.48-3.14-2-.32-.56,1.36-2.21.28-3.37-1.63-.42-2.68.18-3.92,1.09l.57-3.97,3.4,1.7c1.07-4.63-4.3-1.75-5.01-2.94-.58-.96.13-2.73-2.36-3.59,1.08-.55,3.27-2.43,2.23-3.66-.2-.24-3.78-.74-5.11-3.12-.71-1.27-.33-2.62-.61-3.07-.41-.65-4.33-.18-3.33-3.49-2.33-.64-1.54,2.24-3.97,1.7l-.03-4.52c-3.16.34-4.8-2.9-7.92-2.29l.28,3.4-4.26-2.83c-.58,1.48-.22,2.12.56,3.4h-3.41c-.34,3.74,3.35,2.36,4.84,5.68,1.24.02,1.29-.8.84-1.7,1.83-1.04,4.81,4.43,4.58,6.2l5.64.05c-2.7,2.82-1.51,5.1,2.28,5.11.19,2.92-4.03,3.85-2.32,6,1.28,1.61,3.12-.35,4.77.76,1.46.98,1.49,7.78,4.64,1.19,2.73.8.35,1.84.91,3.6.2.64,2.26,1.3,2.22,2.63l-2.83-.57c-2.74,5.74-1.34,6.64,4.54,4.55-4.07,4.22.13,3.66,1.71,5.39,1.01,1.11.58,4.12,3.4,4.27.44,1.65-1.24,1.21-2.27,1.69-.28-.7-.32-1.53-.61-2.24h-1.63s-1.73,3.66-1.73,3.66c1.32,1.8,1.19-.28,1.87-.68.62-.36,1.41-.43,2.09-.74ZM393.29,348.07c-2.51-.42-3.16,2.39-3.38,4.29s2.43-.16,2.81.25l-.56,3.4c2.3.49,2.51-2.18,3.42-3.7l-.26-.87-1.94-.6-.09-2.76ZM344.46,356.58c-.42-4.81-2.74-1.83-4.22-1.75s-4.46-1.82-3.44,1.76c3.06-.74,4.6-.99,7.66,0ZM341.62,370.2c6.9-1.49-1.64-10.86-2.27-3.98l2.19.66.08,3.32ZM81.01,366.79c0-3.94-5.44-3.47-2.27.33l2.27-.33ZM380.79,370.77c.98-3.82-3.48-5.17-3.16-1.13l3.16,1.13ZM354.86,380.26c1.1,1.29,4.39,2.68,4.93.44.47-1.96-7.96-3.98-4.93-.44ZM349.3,378.86c-1.52-.11-3.06,2.61-1.09,3.22,3.24,1,2.85-3.09,1.09-3.22ZM388.74,384.4c.21-3.95-4.48-3.3-6.12-.78l.45,2.49,2.05-2.24,3.62.53ZM71.68,382.73c-.42.13-1.04.84-.89,1.38l1.98,1.99c2.31-1.36,1.57-4.19-1.1-3.36ZM423.73,390.69l-.93,1.37c.02,3.41,7.74-.72.93-1.37ZM396.69,413.36c-3.11.14-3.61,1.59-3.4,4.54.76.87,3.96-3.34,3.4-4.54ZM389.32,430.95c1.66-.42,4.19,1.65,4.54-.84-1.41-2.19-4.25-1.88-4.54.84ZM455.18,434.36c1.97-1.38,4.12.87,5.34.55,3.65-.96-3.74-6.49-5.34-.55ZM413.85,456.62c.22-.35,1.32-.37,1.55-1,.67-2.01-2.35-2.73-2.76-1.03-.21.88.91,2.82-.05,4.18,1.96.41.7-1.28,1.25-2.15ZM407.26,482.11c-2.2.68-.28,4.08,1.94,2.52,1.48-1.04.16-3.17-1.94-2.52Z"/>
</svg>